<svg width="196" height="39" viewBox="0 0 196 39" fill="none" xmlns="http://www.w3.org/2000/svg">
<g clip-path="url(#clip0_7_101)">
<path d="M16.3505 8.67193L19.6737 2.44597C20.1168 1.64549 19.8067 0.622653 19.0091 0.177941C18.2115 -0.26677 17.1924 0.0445279 16.7493 0.845009L12.5841 8.62746H16.3505V8.67193Z" fill="url(#paint0_linear_7_101)"/>
<path d="M27.6053 8.6719H31.4159L27.2508 0.889442C26.8077 0.0889615 25.7885 -0.222337 24.991 0.222375C24.1934 0.667087 23.8832 1.68992 24.3263 2.4904L27.6053 8.6719Z" fill="url(#paint1_linear_7_101)"/>
<path d="M0.221539 16.6323L4.87411 33.0866C5.53876 35.3991 7.62134 37 10.0584 37H33.9859C36.3786 37 38.5055 35.3991 39.1702 33.0866L43.8227 16.6323C44.7533 13.208 42.1833 9.78369 38.5941 9.78369H5.36152C1.81671 9.78369 -0.753285 13.208 0.221539 16.6323Z" fill="url(#paint2_linear_7_101)"/>
<path d="M36.3343 19.9232H8.59614C7.66563 19.9232 6.95667 19.1672 6.95667 18.2778C6.95667 17.3439 7.70994 16.6323 8.59614 16.6323H36.3343C37.2648 16.6323 37.9738 17.3883 37.9738 18.2778C37.9738 19.1672 37.2648 19.9232 36.3343 19.9232Z" fill="white"/>
<path d="M33.2769 25.0373H11.6536C10.7231 25.0373 10.0141 24.2813 10.0141 23.3919C10.0141 22.458 10.7674 21.7465 11.6536 21.7465H33.2769C34.2075 21.7465 34.9164 22.5025 34.9164 23.3919C34.9164 24.2813 34.2075 25.0373 33.2769 25.0373Z" fill="white"/>
<path d="M28.4914 30.4627H16.3947C15.4642 30.4627 14.7552 29.7067 14.7552 28.8173C14.7552 27.8834 15.5085 27.1719 16.3947 27.1719H28.4914C29.4219 27.1719 30.1309 27.9279 30.1309 28.8173C30.1752 29.7067 29.4219 30.4627 28.4914 30.4627Z" fill="white"/>
</g>
<path d="M65.6406 22.6261C65.0601 22.1431 64.4313 21.7567 63.7541 21.4669C63.0769 21.1771 62.3997 20.8873 61.7225 20.6457C61.0453 20.4042 60.4165 20.1627 59.8361 19.9695C59.2556 19.728 58.8203 19.4865 58.4333 19.1484C58.0947 18.8103 57.9012 18.4239 57.9012 17.8926C57.9012 17.313 58.1431 16.9266 58.5784 16.5885C59.0621 16.2987 59.691 16.1538 60.4649 16.1538C61.2388 16.1538 61.9644 16.2987 62.5932 16.6368C63.222 16.9266 63.8509 17.4096 64.4797 18.0375L67.4787 15.0912C66.7047 14.2218 65.7373 13.5456 64.528 13.0143C63.3188 12.5313 62.0128 12.2415 60.61 12.2415C59.1589 12.2415 57.9496 12.483 56.8371 12.966C55.7729 13.449 54.9023 14.1252 54.3218 15.0429C53.693 15.9606 53.4028 17.0232 53.4028 18.279C53.4028 19.3416 53.5962 20.211 53.9348 20.8873C54.2734 21.5635 54.7571 22.1431 55.3376 22.5778C55.918 23.0125 56.5469 23.3989 57.2241 23.6887C57.9012 23.9785 58.5784 24.2683 59.2556 24.4615C59.9328 24.703 60.5616 24.9445 61.1421 25.186C61.7225 25.4275 62.1579 25.7173 62.5448 26.1037C62.8834 26.4418 63.0769 26.9248 63.0769 27.4561C63.0769 28.084 62.7867 28.567 62.2546 28.9051C61.7225 29.2432 60.997 29.4364 60.0296 29.4364C58.9654 29.4364 58.0464 29.2432 57.2241 28.8085C56.3534 28.4221 55.6278 27.8425 54.9506 27.118L52 30.0161C53.0158 31.127 54.1283 31.9964 55.3376 32.5277C56.5469 33.059 57.998 33.3488 59.691 33.3488C62.1579 33.3488 64.0927 32.8175 65.4471 31.6583C66.8498 30.5474 67.527 29.0017 67.527 27.0697C67.527 26.0071 67.3336 25.1377 66.995 24.4132C66.6564 23.6887 66.1727 23.1091 65.6406 22.6261Z" fill="black"/>
<path d="M81.1676 19.3417C80.3453 18.907 79.3779 18.6655 78.2653 18.6655C77.2012 18.6655 76.2338 18.907 75.4115 19.3417C75.0729 19.5349 74.7826 19.7764 74.4924 20.0179V12H70.0423V33.059H74.4924V24.9928C74.4924 24.5098 74.5892 24.0751 74.831 23.6887C75.0245 23.3023 75.3147 23.0125 75.7017 22.8193C76.0887 22.6261 76.4756 22.5295 76.9593 22.5295C77.6365 22.5295 78.217 22.771 78.7007 23.2057C79.136 23.6404 79.3779 24.2683 79.3779 24.9928V33.0107H83.828V24.0268C83.828 22.9642 83.5861 22.0465 83.1508 21.2254C82.6187 20.4526 81.9899 19.8247 81.1676 19.3417Z" fill="black"/>
<path d="M97.3718 19.5832C96.2109 18.9553 94.9049 18.6172 93.4054 18.6172C91.9543 18.6172 90.5999 18.9553 89.439 19.5832C88.2781 20.2111 87.3591 21.0805 86.6819 22.1914C86.0047 23.3023 85.6661 24.5582 85.6661 25.9106C85.6661 27.3113 86.0047 28.5671 86.6819 29.678C87.3591 30.7889 88.2781 31.7066 89.439 32.3345C90.5999 32.9624 91.9059 33.3005 93.357 33.3005C94.8082 33.3005 96.1625 32.9624 97.3234 32.3345C98.4843 31.7066 99.4034 30.7889 100.081 29.678C100.758 28.5671 101.096 27.3113 101.096 25.9106C101.096 24.5099 100.758 23.254 100.081 22.1431C99.4518 21.1288 98.5327 20.2111 97.3718 19.5832ZM96.2109 27.746C95.9691 28.2773 95.5821 28.6637 95.0984 28.9535C94.6147 29.2433 94.0342 29.3882 93.4054 29.3882C92.7766 29.3882 92.2445 29.2433 91.7608 28.9535C91.2771 28.6637 90.8901 28.2773 90.6483 27.746C90.358 27.2147 90.2129 26.6351 90.2129 26.0072C90.2129 25.331 90.3581 24.7514 90.5999 24.2683C90.8901 23.7853 91.2287 23.3506 91.7124 23.1091C92.1961 22.8193 92.7282 22.6744 93.357 22.6744C93.9859 22.6744 94.5663 22.8193 95.05 23.1091C95.5337 23.3989 95.8723 23.7853 96.1626 24.2683C96.4528 24.7514 96.5495 25.331 96.5495 26.0072C96.5979 26.6351 96.4528 27.2147 96.2109 27.746Z" fill="black"/>
<path d="M115.027 19.6315C114.011 19.0036 112.802 18.6655 111.448 18.6655C110.48 18.6655 109.61 18.8587 108.836 19.2451C108.449 19.4383 108.062 19.6798 107.772 19.9213V18.9553H103.321V39.0001H107.723V32.0931C108.062 32.3829 108.449 32.5761 108.836 32.7693C109.61 33.1557 110.48 33.3006 111.448 33.3006C112.802 33.3006 113.963 32.9625 115.027 32.3346C116.043 31.7067 116.865 30.8373 117.446 29.7264C118.026 28.6154 118.316 27.3596 118.316 25.9589C118.316 24.5582 118.026 23.3024 117.446 22.1915C116.865 21.1289 116.043 20.2594 115.027 19.6315ZM113.431 27.6977C113.141 28.1807 112.802 28.6154 112.318 28.9052C111.835 29.195 111.303 29.3399 110.625 29.3399C110.045 29.3399 109.465 29.195 108.981 28.9052C108.497 28.6154 108.11 28.229 107.868 27.6977C107.626 27.1664 107.481 26.6351 107.481 26.0072C107.481 25.331 107.626 24.7514 107.868 24.2684C108.159 23.7854 108.497 23.3507 108.981 23.1092C109.465 22.8194 109.997 22.6745 110.625 22.6745C111.254 22.6745 111.786 22.8194 112.27 23.1092C112.754 23.399 113.092 23.7854 113.383 24.2684C113.673 24.7514 113.77 25.331 113.77 26.0072C113.866 26.6351 113.721 27.2147 113.431 27.6977Z" fill="black"/>
<path d="M152.321 19.6315C151.305 19.0036 150.096 18.6655 148.742 18.6655C147.774 18.6655 146.904 18.8587 146.13 19.2451C145.743 19.4383 145.356 19.6798 145.065 19.9213V18.9553H140.615V39.0001H145.017V32.0931C145.356 32.3829 145.743 32.5761 146.13 32.8176C146.904 33.204 147.774 33.3489 148.742 33.3489C150.096 33.3489 151.257 33.0108 152.321 32.3829C153.337 31.755 154.159 30.8856 154.74 29.7747C155.32 28.6637 155.61 27.4079 155.61 26.0072C155.61 24.6065 155.32 23.3507 154.74 22.2398C154.208 21.1289 153.385 20.2594 152.321 19.6315ZM150.773 27.6977C150.483 28.1807 150.144 28.6154 149.661 28.9052C149.177 29.195 148.645 29.3399 147.968 29.3399C147.387 29.3399 146.807 29.195 146.323 28.9052C145.839 28.6154 145.452 28.229 145.211 27.6977C144.969 27.1664 144.824 26.6351 144.824 26.0072C144.824 25.331 144.969 24.7514 145.211 24.2684C145.501 23.7854 145.839 23.3507 146.323 23.1092C146.807 22.8194 147.339 22.6745 147.968 22.6745C148.597 22.6745 149.129 22.8194 149.612 23.1092C150.096 23.399 150.435 23.7854 150.725 24.2684C151.015 24.7514 151.112 25.331 151.112 26.0072C151.16 26.6351 151.015 27.2147 150.773 27.6977Z" fill="black"/>
<path d="M168.284 19.5349C167.219 18.9553 166.01 18.6172 164.607 18.6172C163.156 18.6172 161.899 18.9553 160.738 19.5832C159.577 20.2111 158.706 21.0805 158.029 22.1914C157.352 23.3023 157.013 24.5582 157.013 25.9589C157.013 27.3596 157.352 28.6154 158.029 29.7746C158.706 30.8855 159.625 31.7549 160.834 32.3828C162.044 33.0107 163.398 33.3488 164.898 33.3488C166.058 33.3488 167.171 33.1556 168.138 32.7209C169.106 32.2862 169.977 31.7066 170.654 30.8855L168.235 28.4705C167.8 28.9535 167.316 29.3399 166.736 29.5331C166.155 29.7746 165.526 29.9195 164.849 29.9195C164.075 29.9195 163.446 29.7746 162.914 29.4365C162.382 29.0984 161.947 28.6637 161.657 28.0841C161.56 27.8909 161.463 27.6977 161.415 27.4562H171.476C171.573 27.0698 171.621 26.78 171.621 26.4902C171.669 26.2004 171.669 25.9589 171.669 25.6691C171.669 24.3166 171.379 23.0608 170.75 21.9982C170.17 20.9839 169.348 20.1145 168.284 19.5349ZM162.769 22.5295C163.301 22.1914 163.882 22.0465 164.607 22.0465C165.285 22.0465 165.817 22.1914 166.3 22.4812C166.736 22.771 167.074 23.1574 167.316 23.6887C167.413 23.9302 167.51 24.1717 167.558 24.4133H161.415C161.463 24.22 161.56 24.0268 161.608 23.8336C161.899 23.254 162.286 22.8193 162.769 22.5295Z" fill="black"/>
<path d="M181.924 18.6655C180.376 18.6655 179.167 19.1002 178.296 20.0179V18.9553H173.846V33.0591H178.296V25.331C178.296 24.4133 178.538 23.7371 178.925 23.3024C179.36 22.8677 179.941 22.6262 180.666 22.6262C181.053 22.6262 181.344 22.6745 181.634 22.8194C181.924 22.916 182.166 23.1092 182.359 23.3024L185.02 19.9696C184.633 19.5349 184.197 19.2451 183.665 19.0519C183.182 18.7621 182.601 18.6655 181.924 18.6655Z" fill="black"/>
<path d="M196 18.9553H192.808V13.111H188.357V18.9553H185.165V22.7228H188.357V33.0591H192.808V22.7228H196V18.9553Z" fill="black"/>
<path d="M129.538 22.9643L126.007 18.9553H120.251L126.588 26.3453L120.59 33.2523H126.588L129.538 29.7746L132.537 33.2523H138.535L132.489 26.297L129.538 22.9643Z" fill="black"/>
<path d="M136.988 21.0322L132.489 26.297L129.538 22.9642L131.231 21.0322H136.988Z" fill="#949494"/>
<defs>
<linearGradient id="paint0_linear_7_101" x1="16.1353" y1="-0.910713" x2="16.4216" y2="18.776" gradientUnits="userSpaceOnUse">
<stop stop-color="#AE48FF"/>
<stop offset="0.992" stop-color="#603CFF"/>
</linearGradient>
<linearGradient id="paint1_linear_7_101" x1="27.6689" y1="-1.0785" x2="27.9553" y2="18.6082" gradientUnits="userSpaceOnUse">
<stop stop-color="#AE48FF"/>
<stop offset="0.992" stop-color="#603CFF"/>
</linearGradient>
<linearGradient id="paint2_linear_7_101" x1="35.7461" y1="10.7268" x2="13.0489" y2="28.4679" gradientUnits="userSpaceOnUse">
<stop stop-color="#AE48FF"/>
<stop offset="0.992" stop-color="#603CFF"/>
</linearGradient>
<clipPath id="clip0_7_101">
<rect width="44" height="37" fill="white"/>
</clipPath>
</defs>
</svg>
