<svg width="22" height="20" viewBox="0 0 22 20" fill="none" xmlns="http://www.w3.org/2000/svg">
<path fill-rule="evenodd" clip-rule="evenodd" d="M13.9024 2.96194C12.8681 3.55296 12.1486 4.43887 11.8944 4.94716C11.725 5.28595 11.3788 5.49995 11 5.49995C10.6212 5.49995 10.2749 5.28595 10.1056 4.94716C9.807 4.35006 9.21868 3.48302 8.38278 2.92575C7.59919 2.40335 6.56862 2.12453 5.18387 2.67843C2.46632 3.76545 1.80885 7.07844 3.54998 9.39995C4.52332 10.6977 6.52467 12.705 8.33807 14.4321C9.23387 15.2852 10.0663 16.0536 10.6749 16.6088C10.792 16.7156 10.9007 16.8145 11 16.9045C11.0992 16.8145 11.208 16.7156 11.325 16.6088C11.9337 16.0536 12.7661 15.2852 13.6619 14.4321C15.4753 12.705 17.4766 10.6977 18.45 9.39995C19.3485 8.20186 19.7714 6.73255 19.6311 5.46976C19.4958 4.25212 18.8463 3.2155 17.5036 2.67843C16.1264 2.12754 14.9004 2.39162 13.9024 2.96194ZM11 18.2499C10.3356 18.9974 10.3356 18.9973 10.3355 18.9972L10.3168 18.9806L10.2636 18.9331C10.2171 18.8915 10.1488 18.8304 10.0614 18.7518C9.88666 18.5947 9.63512 18.3675 9.327 18.0864C8.71101 17.5244 7.86765 16.7459 6.95876 15.8803C5.16279 14.1699 3.03914 12.0522 1.94998 10.5999C-0.433886 7.42146 0.283647 2.48445 4.44109 0.821472C6.49384 0.000370681 8.21328 0.409044 9.49218 1.26165C10.1266 1.68461 10.6434 2.20863 11.0483 2.72365C11.5407 2.18354 12.1714 1.64758 12.9101 1.22546C14.3183 0.420773 16.1861 -0.00263995 18.2464 0.821472C20.3412 1.6594 21.4104 3.37278 21.6189 5.24889C21.8223 7.07985 21.2139 9.04803 20.05 10.5999C18.9608 12.0522 16.8372 14.1699 15.0412 15.8803C14.1323 16.7459 13.289 17.5244 12.673 18.0864C12.3648 18.3675 12.1133 18.5947 11.9385 18.7518C11.8511 18.8304 11.7829 18.8915 11.7364 18.9331L11.6831 18.9806L11.6647 18.997C11.6647 18.9971 11.6643 18.9974 11 18.2499ZM11 18.2499L11.6647 18.997C11.2859 19.3338 10.7144 19.334 10.3355 18.9972L11 18.2499Z" fill="#2A2A2A"/>
</svg>
