<svg width="22" height="17" viewBox="0 0 22 17" fill="none" xmlns="http://www.w3.org/2000/svg">
<path d="M21.2 1.6C21.2 2.48366 20.4837 3.2 19.6 3.2C18.7163 3.2 18 2.48366 18 1.6C18 0.716344 18.7163 0 19.6 0C20.4837 0 21.2 0.716344 21.2 1.6Z" fill="#C4C4C4"/>
<path d="M21.2 7.6C21.2 8.48366 20.4837 9.2 19.6 9.2C18.7163 9.2 18 8.48366 18 7.6C18 6.71634 18.7163 6 19.6 6C20.4837 6 21.2 6.71634 21.2 7.6Z" fill="#C4C4C4"/>
<path d="M21.2 14.6C21.2 15.4837 20.4837 16.2 19.6 16.2C18.7163 16.2 18 15.4837 18 14.6C18 13.7163 18.7163 13 19.6 13C20.4837 13 21.2 13.7163 21.2 14.6Z" fill="#C4C4C4"/>
<path d="M15.2 1.6C15.2 2.48366 14.4837 3.2 13.6 3.2C12.7163 3.2 12 2.48366 12 1.6C12 0.716344 12.7163 0 13.6 0C14.4837 0 15.2 0.716344 15.2 1.6Z" fill="#C4C4C4"/>
<path d="M15.2 7.6C15.2 8.48366 14.4837 9.2 13.6 9.2C12.7163 9.2 12 8.48366 12 7.6C12 6.71634 12.7163 6 13.6 6C14.4837 6 15.2 6.71634 15.2 7.6Z" fill="#C4C4C4"/>
<path d="M15.2 14.6C15.2 15.4837 14.4837 16.2 13.6 16.2C12.7163 16.2 12 15.4837 12 14.6C12 13.7163 12.7163 13 13.6 13C14.4837 13 15.2 13.7163 15.2 14.6Z" fill="#C4C4C4"/>
<path d="M9.2 1.6C9.2 2.48366 8.48366 3.2 7.6 3.2C6.71634 3.2 6 2.48366 6 1.6C6 0.716344 6.71634 0 7.6 0C8.48366 0 9.2 0.716344 9.2 1.6Z" fill="#C4C4C4"/>
<path d="M9.2 7.6C9.2 8.48366 8.48366 9.2 7.6 9.2C6.71634 9.2 6 8.48366 6 7.6C6 6.71634 6.71634 6 7.6 6C8.48366 6 9.2 6.71634 9.2 7.6Z" fill="#C4C4C4"/>
<path d="M9.2 14.6C9.2 15.4837 8.48366 16.2 7.6 16.2C6.71634 16.2 6 15.4837 6 14.6C6 13.7163 6.71634 13 7.6 13C8.48366 13 9.2 13.7163 9.2 14.6Z" fill="#C4C4C4"/>
<path d="M3.2 1.6C3.2 2.48366 2.48366 3.2 1.6 3.2C0.716344 3.2 0 2.48366 0 1.6C0 0.716344 0.716344 0 1.6 0C2.48366 0 3.2 0.716344 3.2 1.6Z" fill="#C4C4C4"/>
<path d="M3.2 7.6C3.2 8.48366 2.48366 9.2 1.6 9.2C0.716344 9.2 0 8.48366 0 7.6C0 6.71634 0.716344 6 1.6 6C2.48366 6 3.2 6.71634 3.2 7.6Z" fill="#C4C4C4"/>
<path d="M3.2 14.6C3.2 15.4837 2.48366 16.2 1.6 16.2C0.716344 16.2 0 15.4837 0 14.6C0 13.7163 0.716344 13 1.6 13C2.48366 13 3.2 13.7163 3.2 14.6Z" fill="#C4C4C4"/>
</svg>
