<svg width="19" height="17" viewBox="0 0 19 17" fill="none" xmlns="http://www.w3.org/2000/svg">
<path d="M18.4844 1.3125H5.36719C5.26836 1.3125 5.1875 1.39336 5.1875 1.49219V2.75C5.1875 2.84883 5.26836 2.92969 5.36719 2.92969H18.4844C18.5832 2.92969 18.6641 2.84883 18.6641 2.75V1.49219C18.6641 1.39336 18.5832 1.3125 18.4844 1.3125ZM18.4844 7.69141H5.36719C5.26836 7.69141 5.1875 7.77227 5.1875 7.87109V9.12891C5.1875 9.22773 5.26836 9.30859 5.36719 9.30859H18.4844C18.5832 9.30859 18.6641 9.22773 18.6641 9.12891V7.87109C18.6641 7.77227 18.5832 7.69141 18.4844 7.69141ZM18.4844 14.0703H5.36719C5.26836 14.0703 5.1875 14.1512 5.1875 14.25V15.5078C5.1875 15.6066 5.26836 15.6875 5.36719 15.6875H18.4844C18.5832 15.6875 18.6641 15.6066 18.6641 15.5078V14.25C18.6641 14.1512 18.5832 14.0703 18.4844 14.0703ZM0.335938 2.12109C0.335937 2.28627 0.368472 2.44983 0.431683 2.60244C0.494894 2.75504 0.587544 2.8937 0.704342 3.0105C0.821141 3.1273 0.959801 3.21995 1.11241 3.28316C1.26501 3.34637 1.42857 3.37891 1.59375 3.37891C1.75893 3.37891 1.92249 3.34637 2.07509 3.28316C2.2277 3.21995 2.36636 3.1273 2.48316 3.0105C2.59996 2.8937 2.69261 2.75504 2.75582 2.60244C2.81903 2.44983 2.85156 2.28627 2.85156 2.12109C2.85156 1.95592 2.81903 1.79235 2.75582 1.63975C2.69261 1.48715 2.59996 1.34848 2.48316 1.23169C2.36636 1.11489 2.2277 1.02224 2.07509 0.959026C1.92249 0.895815 1.75893 0.863281 1.59375 0.863281C1.42857 0.863281 1.26501 0.895815 1.11241 0.959026C0.959801 1.02224 0.821141 1.11489 0.704342 1.23169C0.587544 1.34848 0.494894 1.48715 0.431683 1.63975C0.368472 1.79235 0.335937 1.95592 0.335938 2.12109ZM0.335938 8.5C0.335937 8.66518 0.368472 8.82874 0.431683 8.98134C0.494894 9.13395 0.587544 9.27261 0.704342 9.38941C0.821141 9.50621 0.959801 9.59886 1.11241 9.66207C1.26501 9.72528 1.42857 9.75781 1.59375 9.75781C1.75893 9.75781 1.92249 9.72528 2.07509 9.66207C2.2277 9.59886 2.36636 9.50621 2.48316 9.38941C2.59996 9.27261 2.69261 9.13395 2.75582 8.98134C2.81903 8.82874 2.85156 8.66518 2.85156 8.5C2.85156 8.33482 2.81903 8.17126 2.75582 8.01866C2.69261 7.86605 2.59996 7.72739 2.48316 7.61059C2.36636 7.49379 2.2277 7.40114 2.07509 7.33793C1.92249 7.27472 1.75893 7.24219 1.59375 7.24219C1.42857 7.24219 1.26501 7.27472 1.11241 7.33793C0.959801 7.40114 0.821141 7.49379 0.704342 7.61059C0.587544 7.72739 0.494894 7.86605 0.431683 8.01866C0.368472 8.17126 0.335937 8.33482 0.335938 8.5ZM0.335938 14.8789C0.335937 15.0441 0.368472 15.2076 0.431683 15.3603C0.494894 15.5129 0.587544 15.6515 0.704342 15.7683C0.821141 15.8851 0.959801 15.9778 1.11241 16.041C1.26501 16.1042 1.42857 16.1367 1.59375 16.1367C1.75893 16.1367 1.92249 16.1042 2.07509 16.041C2.2277 15.9778 2.36636 15.8851 2.48316 15.7683C2.59996 15.6515 2.69261 15.5129 2.75582 15.3603C2.81903 15.2076 2.85156 15.0441 2.85156 14.8789C2.85156 14.7137 2.81903 14.5502 2.75582 14.3976C2.69261 14.245 2.59996 14.1063 2.48316 13.9895C2.36636 13.8727 2.2277 13.7801 2.07509 13.7168C1.92249 13.6536 1.75893 13.6211 1.59375 13.6211C1.42857 13.6211 1.26501 13.6536 1.11241 13.7168C0.959801 13.7801 0.821141 13.8727 0.704342 13.9895C0.587544 14.1063 0.494894 14.245 0.431683 14.3976C0.368472 14.5502 0.335937 14.7137 0.335938 14.8789Z" fill="#9B9B9B"/>
</svg>
