<svg width="24" height="15" viewBox="0 0 24 15" fill="none" xmlns="http://www.w3.org/2000/svg">
<path d="M23.7336 10.8638L19.9184 14.7301C19.5632 15.09 18.9875 15.09 18.6323 14.7301L14.817 10.8638C14.4619 10.5038 14.4619 9.92032 14.817 9.56043L15.2271 9.14483C15.5895 8.77765 16.1795 8.78618 16.5314 9.16372L18.0628 10.8069V3.81363H10.9561C10.7149 3.81362 10.4836 3.71653 10.313 3.54372L9.70675 2.92932C9.13386 2.34872 9.53961 1.35604 10.3498 1.35604H19.5785C20.0807 1.35604 20.4879 1.76865 20.4879 2.27764V10.8069L22.0193 9.16372C22.3712 8.78622 22.9612 8.77765 23.3236 9.14483L23.7337 9.56043C24.0888 9.92032 24.0888 10.5039 23.7336 10.8638ZM13.6869 11.4563C13.6025 11.3707 13.5022 11.3028 13.3919 11.2565C13.2815 11.2102 13.1633 11.1864 13.0439 11.1864H5.93723V4.19306L7.46868 5.83627C7.82055 6.21377 8.41053 6.22234 8.7729 5.85512L9.18297 5.43956C9.53813 5.07963 9.53813 4.49611 9.18297 4.13623L5.36774 0.269941C5.01258 -0.0899804 4.43677 -0.0899804 4.08164 0.269941L0.266374 4.13627C-0.0887912 4.49619 -0.0887912 5.07971 0.266374 5.43959L0.676444 5.85516C1.03877 6.22234 1.62879 6.21381 1.98066 5.8363L3.51212 4.19306V12.7224C3.51212 13.2314 3.91927 13.644 4.42153 13.644H13.6502C14.4604 13.644 14.8661 12.6513 14.2932 12.0707L13.6869 11.4563Z" fill="#646464"/>
</svg>
