<svg width="26" height="20" viewBox="0 0 26 20" fill="none" xmlns="http://www.w3.org/2000/svg">
<path d="M24.875 13.75H24.25V9.52734C24.25 9.03125 24.0508 8.55469 23.6992 8.20312L19.7969 4.30078C19.4453 3.94922 18.9688 3.75 18.4727 3.75H16.75V1.875C16.75 0.839844 15.9102 0 14.875 0H2.375C1.33984 0 0.5 0.839844 0.5 1.875V14.375C0.5 15.4102 1.33984 16.25 2.375 16.25H3C3 18.3203 4.67969 20 6.75 20C8.82031 20 10.5 18.3203 10.5 16.25H15.5C15.5 18.3203 17.1797 20 19.25 20C21.3203 20 23 18.3203 23 16.25H24.875C25.2188 16.25 25.5 15.9688 25.5 15.625V14.375C25.5 14.0312 25.2188 13.75 24.875 13.75ZM6.75 18.125C5.71484 18.125 4.875 17.2852 4.875 16.25C4.875 15.2148 5.71484 14.375 6.75 14.375C7.78516 14.375 8.625 15.2148 8.625 16.25C8.625 17.2852 7.78516 18.125 6.75 18.125ZM19.25 18.125C18.2148 18.125 17.375 17.2852 17.375 16.25C17.375 15.2148 18.2148 14.375 19.25 14.375C20.2852 14.375 21.125 15.2148 21.125 16.25C21.125 17.2852 20.2852 18.125 19.25 18.125ZM22.375 10H16.75V5.625H18.4727L22.375 9.52734V10Z" fill="#646464"/>
</svg>
