<svg width="22" height="24" viewBox="0 0 22 24" fill="none" xmlns="http://www.w3.org/2000/svg">
<path d="M11.2727 1.75566C12.2716 1.75566 13.2296 2.14626 13.9359 2.84153C14.6422 3.5368 15.039 4.47979 15.039 5.46305V6.20452H7.50652V5.46305C7.50652 4.47979 7.90331 3.5368 8.60962 2.84153C9.31593 2.14626 10.2739 1.75566 11.2727 1.75566ZM16.5455 6.20452V5.46305C16.5455 4.08648 15.99 2.7663 15.0011 1.79292C14.0123 0.819543 12.6712 0.272705 11.2727 0.272705C9.87434 0.272705 8.5332 0.819543 7.54437 1.79292C6.55554 2.7663 6.00002 4.08648 6.00002 5.46305V6.20452H0.727295V21.0341C0.727295 21.8207 1.04473 22.5751 1.60978 23.1313C2.17482 23.6875 2.94119 24 3.74028 24H18.8052C19.6043 24 20.3707 23.6875 20.9357 23.1313C21.5008 22.5751 21.8182 21.8207 21.8182 21.0341V6.20452H16.5455ZM2.23379 7.68748H20.3117V21.0341C20.3117 21.4274 20.153 21.8046 19.8705 22.0827C19.5879 22.3608 19.2048 22.517 18.8052 22.517H3.74028C3.34074 22.517 2.95755 22.3608 2.67503 22.0827C2.39251 21.8046 2.23379 21.4274 2.23379 21.0341V7.68748Z" fill="#2A2A2A"/>
</svg>
