<svg width="30" height="18" viewBox="0 0 30 18" fill="none" xmlns="http://www.w3.org/2000/svg">
<path d="M16.5 10.5H15.75V6.375C15.75 6.16781 15.5822 6 15.375 6H14.7384C14.5163 6 14.2992 6.06562 14.1145 6.18891L13.3959 6.66797C13.355 6.69526 13.3198 6.73035 13.2923 6.77125C13.2649 6.81215 13.2458 6.85805 13.2362 6.90633C13.2265 6.9546 13.2265 7.00431 13.236 7.05261C13.2456 7.10091 13.2646 7.14685 13.2919 7.18781L13.7081 7.81172C13.7354 7.8527 13.7705 7.88791 13.8114 7.91532C13.8523 7.94273 13.8982 7.96181 13.9465 7.97148C13.9948 7.98114 14.0445 7.9812 14.0928 7.97164C14.1411 7.96208 14.187 7.9431 14.228 7.91578L14.25 7.90125V10.5H13.5C13.2928 10.5 13.125 10.6678 13.125 10.875V11.625C13.125 11.8322 13.2928 12 13.5 12H16.5C16.7072 12 16.875 11.8322 16.875 11.625V10.875C16.875 10.6678 16.7072 10.5 16.5 10.5ZM28.5 0H1.5C0.671719 0 0 0.671719 0 1.5V16.5C0 17.3283 0.671719 18 1.5 18H28.5C29.3283 18 30 17.3283 30 16.5V1.5C30 0.671719 29.3283 0 28.5 0ZM2.25 15.75V12.75C3.90703 12.75 5.25 14.093 5.25 15.75H2.25ZM2.25 5.25V2.25H5.25C5.25 3.90703 3.90703 5.25 2.25 5.25ZM15 14.25C12.5147 14.25 10.5 11.8992 10.5 9C10.5 6.10031 12.5147 3.75 15 3.75C17.4853 3.75 19.5 6.10031 19.5 9C19.5 11.9002 17.4844 14.25 15 14.25ZM27.75 15.75H24.75C24.75 14.093 26.093 12.75 27.75 12.75V15.75ZM27.75 5.25C26.093 5.25 24.75 3.90703 24.75 2.25H27.75V5.25Z" fill="#646464"/>
</svg>
