<svg width="31" height="31" viewBox="0 0 31 31" fill="none" xmlns="http://www.w3.org/2000/svg">
<path d="M27.3724 15.4953L30.0668 12.8583C30.87 12.0979 30.4955 10.7467 29.4419 10.4947L25.771 9.55779L26.8059 5.9241C27.0983 4.87891 26.1128 3.89307 25.0679 4.18557L21.4355 5.22074L20.4989 1.54862C20.2511 0.511569 18.8846 0.132292 18.1361 0.923541L15.5 3.63889L12.8639 0.9236C12.1239 0.141315 10.7518 0.499733 10.5011 1.54868L9.56456 5.2208L5.93204 4.18563C4.88691 3.89301 3.90171 4.8792 4.1941 5.92416L5.22892 9.55785L1.55802 10.4948C0.504041 10.7468 0.130272 12.0983 0.933123 12.8583L3.62755 15.4953L0.933123 18.1323C0.12992 18.8926 0.504451 20.2439 1.55797 20.4959L5.22886 21.4328L4.19404 25.0665C3.9016 26.1117 4.88714 27.0975 5.93198 26.805L9.56444 25.7698L10.501 29.442C10.7611 30.5303 12.1238 30.8493 12.8638 30.067L15.5 27.3717L18.1361 30.067C18.8685 30.8574 20.2447 30.5057 20.4988 29.442L21.4354 25.7698L25.0679 26.805C26.1129 27.0976 27.0982 26.1114 26.8058 25.0665L25.771 21.4328L29.4419 20.4959C30.4958 20.2438 30.8696 18.8924 30.0667 18.1323L27.3724 15.4953Z" fill="#646464"/>
<path d="M19.3067 10.9507C19.4949 10.7715 19.7454 10.6724 20.0053 10.6743C20.2652 10.6763 20.5142 10.7792 20.6997 10.9612C20.8852 11.1433 20.9928 11.3903 20.9996 11.6501C21.0065 11.9099 20.9122 12.1622 20.7366 12.3538L15.4046 19.0221C15.3129 19.1209 15.2023 19.2001 15.0792 19.2551C14.9562 19.3101 14.8234 19.3398 14.6887 19.3423C14.5539 19.3447 14.4201 19.32 14.2951 19.2696C14.1702 19.2192 14.0566 19.1441 13.9614 19.0488L10.4254 15.5129C10.327 15.4211 10.248 15.3105 10.1932 15.1876C10.1384 15.0646 10.109 14.9319 10.1066 14.7973C10.1042 14.6628 10.129 14.5291 10.1794 14.4043C10.2298 14.2795 10.3048 14.1661 10.4 14.0709C10.4952 13.9758 10.6085 13.9008 10.7333 13.8503C10.8581 13.7999 10.9918 13.7752 11.1264 13.7776C11.2609 13.7799 11.3937 13.8094 11.5166 13.8642C11.6395 13.9189 11.7502 13.9979 11.8419 14.0964L14.6402 16.8933L19.2813 10.9801C19.2896 10.9698 19.2986 10.96 19.308 10.9507H19.3067Z" fill="white"/>
</svg>
