<svg width="37" height="13" viewBox="0 0 37 13" fill="none" xmlns="http://www.w3.org/2000/svg">
<path d="M1.80273 2.31934H35.2472" stroke="#666666" stroke-miterlimit="10" stroke-linecap="round" stroke-linejoin="round"/>
<path d="M1.80273 0.527832V5.30561" stroke="#666666" stroke-miterlimit="10" stroke-linecap="round" stroke-linejoin="round"/>
<path d="M35.2471 0.527832V5.30561" stroke="#666666" stroke-miterlimit="10" stroke-linecap="round" stroke-linejoin="round"/>
<path d="M18.5249 0.527832V5.30561" stroke="#666666" stroke-miterlimit="10" stroke-linecap="round" stroke-linejoin="round"/>
<path d="M10.1636 0.527832V4.11116" stroke="#666666" stroke-miterlimit="10" stroke-linecap="round" stroke-linejoin="round"/>
<path d="M26.8862 0.527832V4.11116" stroke="#666666" stroke-miterlimit="10" stroke-linecap="round" stroke-linejoin="round"/>
<path d="M1.78235 12.4154C1.47908 12.4153 1.18827 12.2947 0.973823 12.0803C0.759375 11.8658 0.63883 11.575 0.638672 11.2717V9.37854C0.638672 8.74728 1.15109 8.23486 1.78235 8.23486C2.41481 8.23486 2.92663 8.74728 2.92663 9.37914V11.2717C2.92647 11.575 2.80593 11.8658 2.59148 12.0803C2.37703 12.2947 2.08622 12.4153 1.78295 12.4154H1.78235Z" stroke="#666666" stroke-miterlimit="10" stroke-linecap="round" stroke-linejoin="round"/>
<path d="M33.928 9.25443C33.9877 8.96479 34.1455 8.7046 34.3747 8.51778C34.604 8.33097 34.8906 8.22897 35.1864 8.229C35.5411 8.229 35.8618 8.37234 36.0941 8.60525C36.4561 8.96657 36.4226 9.56678 36.0834 9.9496L33.9023 12.4096H36.4704" stroke="#666666" stroke-miterlimit="10" stroke-linecap="round" stroke-linejoin="round"/>
<path d="M17.9741 9.13512L19.1321 8.26855V12.4491" stroke="#666666" stroke-miterlimit="10" stroke-linecap="round" stroke-linejoin="round"/>
</svg>
