<svg width="20" height="21" viewBox="0 0 20 21" fill="none" xmlns="http://www.w3.org/2000/svg">
<path d="M10 0.166626C8.92869 0.166626 7.88143 0.484308 6.99066 1.0795C6.0999 1.67469 5.40563 2.52066 4.99565 3.51042C4.58568 4.50019 4.47841 5.5893 4.68741 6.64003C4.89642 7.69076 5.4123 8.65592 6.16984 9.41346C6.92737 10.171 7.89253 10.6869 8.94326 10.8959C9.99399 11.1049 11.0831 10.9976 12.0729 10.5876C13.0626 10.1777 13.9086 9.4834 14.5038 8.59263C15.099 7.70187 15.4167 6.65461 15.4167 5.58329C15.4167 4.1467 14.846 2.76895 13.8302 1.75313C12.8143 0.737309 11.4366 0.166626 10 0.166626ZM10 8.83329C9.35721 8.83329 8.72886 8.64268 8.1944 8.28557C7.65994 7.92845 7.24338 7.42087 6.99739 6.82701C6.75141 6.23315 6.68705 5.57969 6.81245 4.94925C6.93785 4.31881 7.24738 3.73972 7.7019 3.2852C8.15642 2.83068 8.73552 2.52114 9.36596 2.39574C9.9964 2.27034 10.6499 2.3347 11.2437 2.58068C11.8376 2.82667 12.3452 3.24323 12.7023 3.77769C13.0594 4.31215 13.25 4.9405 13.25 5.58329C13.25 6.44525 12.9076 7.2719 12.2981 7.88139C11.6886 8.49088 10.862 8.83329 10 8.83329ZM19.75 20.75V19.6666C19.75 17.6554 18.951 15.7266 17.5289 14.3044C16.1067 12.8822 14.1779 12.0833 12.1667 12.0833H7.83333C5.82211 12.0833 3.89326 12.8822 2.47111 14.3044C1.04896 15.7266 0.25 17.6554 0.25 19.6666V20.75H2.41667V19.6666C2.41667 18.23 2.98735 16.8523 4.00317 15.8365C5.01899 14.8206 6.39674 14.25 7.83333 14.25H12.1667C13.6033 14.25 14.981 14.8206 15.9968 15.8365C17.0127 16.8523 17.5833 18.23 17.5833 19.6666V20.75H19.75Z" fill="#2A2A2A"/>
</svg>
